<mxfile host="app.diagrams.net" agent="Mozilla/5.0 (X11; Linux x86_64) AppleWebKit/537.36 (KHTML, like Gecko) Chrome/135.0.0.0 Safari/537.36" version="27.0.9">
  <diagram name="Page-1" id="PIDc5xQBQ2qk-h52vvgz">
    <mxGraphModel dx="2066" dy="1079" grid="1" gridSize="10" guides="1" tooltips="1" connect="1" arrows="1" fold="1" page="1" pageScale="1" pageWidth="850" pageHeight="1100" math="0" shadow="0">
      <root>
        <mxCell id="0" />
        <mxCell id="1" parent="0" />
        <mxCell id="Yr64ojmGc8FwbUpCbdgE-2" value="Callls" style="edgeStyle=orthogonalEdgeStyle;rounded=0;orthogonalLoop=1;jettySize=auto;html=1;" edge="1" parent="1" source="QMjJ2E7ZA8C0QVmtVVMt-27" target="Yr64ojmGc8FwbUpCbdgE-1">
          <mxGeometry relative="1" as="geometry" />
        </mxCell>
        <mxCell id="QMjJ2E7ZA8C0QVmtVVMt-27" value="Notification service" style="rounded=1;whiteSpace=wrap;html=1;" parent="1" vertex="1">
          <mxGeometry x="365" y="100" width="120" height="60" as="geometry" />
        </mxCell>
        <mxCell id="QMjJ2E7ZA8C0QVmtVVMt-32" value="LLMUtils" style="rounded=1;whiteSpace=wrap;html=1;" parent="1" vertex="1">
          <mxGeometry x="670" y="300" width="120" height="50" as="geometry" />
        </mxCell>
        <mxCell id="Yr64ojmGc8FwbUpCbdgE-4" style="edgeStyle=orthogonalEdgeStyle;rounded=0;orthogonalLoop=1;jettySize=auto;html=1;entryX=0.5;entryY=1;entryDx=0;entryDy=0;endArrow=block;endFill=0;" edge="1" parent="1" source="Yr64ojmGc8FwbUpCbdgE-1" target="Yr64ojmGc8FwbUpCbdgE-3">
          <mxGeometry relative="1" as="geometry" />
        </mxCell>
        <mxCell id="Yr64ojmGc8FwbUpCbdgE-8" value="Using" style="edgeStyle=orthogonalEdgeStyle;rounded=0;orthogonalLoop=1;jettySize=auto;html=1;exitX=1;exitY=0.5;exitDx=0;exitDy=0;entryX=0;entryY=0.5;entryDx=0;entryDy=0;" edge="1" parent="1" source="Yr64ojmGc8FwbUpCbdgE-1" target="QMjJ2E7ZA8C0QVmtVVMt-32">
          <mxGeometry relative="1" as="geometry" />
        </mxCell>
        <mxCell id="Yr64ojmGc8FwbUpCbdgE-10" value="Uses/Calls" style="edgeStyle=orthogonalEdgeStyle;rounded=0;orthogonalLoop=1;jettySize=auto;html=1;" edge="1" parent="1" source="Yr64ojmGc8FwbUpCbdgE-1" target="Yr64ojmGc8FwbUpCbdgE-9">
          <mxGeometry relative="1" as="geometry" />
        </mxCell>
        <mxCell id="Yr64ojmGc8FwbUpCbdgE-1" value="ChatGptDataProcessor" style="rounded=1;whiteSpace=wrap;html=1;" vertex="1" parent="1">
          <mxGeometry x="365" y="210" width="135" height="60" as="geometry" />
        </mxCell>
        <mxCell id="Yr64ojmGc8FwbUpCbdgE-3" value="Data processor" style="rounded=1;whiteSpace=wrap;html=1;" vertex="1" parent="1">
          <mxGeometry x="190" y="160" width="120" height="60" as="geometry" />
        </mxCell>
        <mxCell id="Yr64ojmGc8FwbUpCbdgE-9" value="AppDatabase" style="rounded=1;whiteSpace=wrap;html=1;" vertex="1" parent="1">
          <mxGeometry x="373" y="320" width="120" height="60" as="geometry" />
        </mxCell>
        <mxCell id="Yr64ojmGc8FwbUpCbdgE-11" value="BaseActivity" style="rounded=1;whiteSpace=wrap;html=1;" vertex="1" parent="1">
          <mxGeometry x="400" y="660" width="120" height="60" as="geometry" />
        </mxCell>
        <mxCell id="Yr64ojmGc8FwbUpCbdgE-13" value="" style="edgeStyle=orthogonalEdgeStyle;rounded=0;orthogonalLoop=1;jettySize=auto;html=1;endArrow=diamondThin;endFill=1;" edge="1" parent="1" source="Yr64ojmGc8FwbUpCbdgE-12" target="Yr64ojmGc8FwbUpCbdgE-11">
          <mxGeometry relative="1" as="geometry" />
        </mxCell>
        <mxCell id="Yr64ojmGc8FwbUpCbdgE-25" value="Opens" style="edgeStyle=orthogonalEdgeStyle;rounded=0;orthogonalLoop=1;jettySize=auto;html=1;entryX=0.5;entryY=1;entryDx=0;entryDy=0;" edge="1" parent="1" source="Yr64ojmGc8FwbUpCbdgE-12" target="Yr64ojmGc8FwbUpCbdgE-16">
          <mxGeometry relative="1" as="geometry" />
        </mxCell>
        <mxCell id="Yr64ojmGc8FwbUpCbdgE-26" value="Opens" style="edgeStyle=orthogonalEdgeStyle;rounded=0;orthogonalLoop=1;jettySize=auto;html=1;entryX=0;entryY=1;entryDx=0;entryDy=0;" edge="1" parent="1" source="Yr64ojmGc8FwbUpCbdgE-12" target="Yr64ojmGc8FwbUpCbdgE-18">
          <mxGeometry relative="1" as="geometry" />
        </mxCell>
        <mxCell id="Yr64ojmGc8FwbUpCbdgE-12" value="NavigationBar" style="rounded=1;whiteSpace=wrap;html=1;" vertex="1" parent="1">
          <mxGeometry x="270" y="780" width="123" height="60" as="geometry" />
        </mxCell>
        <mxCell id="Yr64ojmGc8FwbUpCbdgE-15" style="edgeStyle=orthogonalEdgeStyle;rounded=0;orthogonalLoop=1;jettySize=auto;html=1;endArrow=block;endFill=0;" edge="1" parent="1" source="Yr64ojmGc8FwbUpCbdgE-14" target="Yr64ojmGc8FwbUpCbdgE-11">
          <mxGeometry relative="1" as="geometry" />
        </mxCell>
        <mxCell id="Yr64ojmGc8FwbUpCbdgE-14" value="MainActivity" style="rounded=1;whiteSpace=wrap;html=1;" vertex="1" parent="1">
          <mxGeometry x="160" y="650" width="120" height="60" as="geometry" />
        </mxCell>
        <mxCell id="Yr64ojmGc8FwbUpCbdgE-17" value="" style="edgeStyle=orthogonalEdgeStyle;rounded=0;orthogonalLoop=1;jettySize=auto;html=1;endArrow=diamond;endFill=1;" edge="1" parent="1" source="Yr64ojmGc8FwbUpCbdgE-16" target="Yr64ojmGc8FwbUpCbdgE-11">
          <mxGeometry relative="1" as="geometry" />
        </mxCell>
        <mxCell id="Yr64ojmGc8FwbUpCbdgE-21" value="Using" style="edgeStyle=orthogonalEdgeStyle;rounded=0;orthogonalLoop=1;jettySize=auto;html=1;entryX=1;entryY=0.5;entryDx=0;entryDy=0;" edge="1" parent="1" source="Yr64ojmGc8FwbUpCbdgE-16" target="Yr64ojmGc8FwbUpCbdgE-9">
          <mxGeometry relative="1" as="geometry" />
        </mxCell>
        <mxCell id="Yr64ojmGc8FwbUpCbdgE-16" value="AboutActivity" style="rounded=1;whiteSpace=wrap;html=1;" vertex="1" parent="1">
          <mxGeometry x="590" y="650" width="120" height="60" as="geometry" />
        </mxCell>
        <mxCell id="Yr64ojmGc8FwbUpCbdgE-19" value="" style="edgeStyle=orthogonalEdgeStyle;rounded=0;orthogonalLoop=1;jettySize=auto;html=1;endArrow=diamond;endFill=1;" edge="1" parent="1" source="Yr64ojmGc8FwbUpCbdgE-18" target="Yr64ojmGc8FwbUpCbdgE-11">
          <mxGeometry relative="1" as="geometry" />
        </mxCell>
        <mxCell id="Yr64ojmGc8FwbUpCbdgE-22" value="Opens" style="edgeStyle=orthogonalEdgeStyle;rounded=0;orthogonalLoop=1;jettySize=auto;html=1;" edge="1" parent="1" source="Yr64ojmGc8FwbUpCbdgE-18" target="Yr64ojmGc8FwbUpCbdgE-20">
          <mxGeometry relative="1" as="geometry" />
        </mxCell>
        <mxCell id="Yr64ojmGc8FwbUpCbdgE-18" value="SettingsActivity" style="rounded=1;whiteSpace=wrap;html=1;" vertex="1" parent="1">
          <mxGeometry x="365" y="480" width="120" height="60" as="geometry" />
        </mxCell>
        <mxCell id="Yr64ojmGc8FwbUpCbdgE-20" value="EditSystemPromptActivity" style="rounded=1;whiteSpace=wrap;html=1;" vertex="1" parent="1">
          <mxGeometry x="90" y="520" width="170" height="60" as="geometry" />
        </mxCell>
        <mxCell id="Yr64ojmGc8FwbUpCbdgE-24" value="Opens" style="edgeStyle=orthogonalEdgeStyle;rounded=0;orthogonalLoop=1;jettySize=auto;html=1;entryX=0.357;entryY=0.934;entryDx=0;entryDy=0;entryPerimeter=0;" edge="1" parent="1" source="Yr64ojmGc8FwbUpCbdgE-12" target="Yr64ojmGc8FwbUpCbdgE-14">
          <mxGeometry relative="1" as="geometry" />
        </mxCell>
      </root>
    </mxGraphModel>
  </diagram>
</mxfile>
